FacadeStencil-Bold.ufo
<glyph name="A" format="2">
  <advance width="820"/>
  <unicode hex="0041"/>
  <anchor x="410" y="0" name="bottom"/>
  <anchor x="670" y="0" name="ogonek"/>
  <anchor x="410" y="900" name="top"/>
  <anchor x="130" y="720" name="top-vertical"/>
  <outline>
    <contour>
      <point x="627" y="0" type="line"/>
      <point x="808" y="0" type="line"/>
      <point x="411" y="932" type="line"/>
      <point x="409" y="932" type="line"/>
      <point x="322" y="728" type="line"/>
    </contour>
    <contour>
      <point x="12" y="0" type="line"/>
      <point x="187" y="0" type="line"/>
      <point x="374" y="447" type="line"/>
      <point x="289" y="650" type="line"/>
    </contour>
    <contour>
      <point x="320" y="160" type="line"/>
      <point x="626" y="160" type="line"/>
      <point x="566" y="304" type="line"/>
      <point x="380" y="304" type="line"/>
    </contour>
  </outline>
</glyph>
<glyph name="D" format="2">
  <advance width="940"/>
  <unicode hex="0044"/>
  <anchor x="407" y="0" name="bottom"/>
  <anchor x="179" y="480" name="center"/>
  <anchor x="407" y="914" name="top"/>
  <outline>
    <contour>
      <point x="330" y="0" type="line"/>
      <point x="402" y="0" type="line" smooth="yes"/>
      <point x="689" y="0"/>
      <point x="886" y="201"/>
      <point x="886" y="450" type="curve" smooth="yes"/>
      <point x="886" y="699"/>
      <point x="689" y="900"/>
      <point x="402" y="900" type="curve" smooth="yes"/>
      <point x="330" y="900" type="line"/>
      <point x="330" y="738" type="line"/>
      <point x="386" y="738" type="line" smooth="yes"/>
      <point x="588" y="738"/>
      <point x="698" y="610"/>
      <point x="698" y="450" type="curve" smooth="yes"/>
      <point x="698" y="290"/>
      <point x="588" y="162"/>
      <point x="386" y="162" type="curve" smooth="yes"/>
      <point x="330" y="162" type="line"/>
    </contour>
    <contour>
      <point x="96" y="0" type="line"/>
      <point x="270" y="0" type="line"/>
      <point x="270" y="900" type="line"/>
      <point x="96" y="900" type="line"/>
    </contour>
  </outline>
</glyph>
<glyph name="M" format="2">
  <advance width="1040"/>
  <unicode hex="004D"/>
  <outline>
    <contour>
      <point x="521" y="125" type="line"/>
      <point x="944" y="691" type="line"/>
      <point x="944" y="930" type="line"/>
      <point x="525" y="397" type="line"/>
      <point x="96" y="930" type="line"/>
      <point x="96" y="676" type="line"/>
    </contour>
    <contour>
      <point x="96" y="0" type="line"/>
      <point x="264" y="0" type="line"/>
      <point x="264" y="358" type="line"/>
      <point x="96" y="576" type="line"/>
    </contour>
    <contour>
      <point x="770" y="0" type="line"/>
      <point x="944" y="0" type="line"/>
      <point x="944" y="591" type="line"/>
      <point x="770" y="358" type="line"/>
    </contour>
  </outline>
</glyph>
<glyph name="U" format="2">
  <advance width="800"/>
  <unicode hex="0055"/>
  <anchor x="400" y="0" name="bottom"/>
  <anchor x="430" y="0" name="ogonek"/>
  <anchor x="400" y="900" name="top"/>
  <anchor x="400" y="720" name="top-vertical"/>
  <anchor x="635" y="900" name="topright"/>
  <outline>
    <contour>
      <point x="366" y="-20" type="curve"/>
      <point x="366" y="155" type="line"/>
      <point x="301" y="169"/>
      <point x="258" y="228"/>
      <point x="258" y="312" type="curve" smooth="yes"/>
      <point x="258" y="900" type="line"/>
      <point x="72" y="900" type="line"/>
      <point x="72" y="303" type="line" smooth="yes"/>
      <point x="72" y="112"/>
      <point x="194" y="-8"/>
    </contour>
    <contour>
      <point x="434" y="-20" type="line"/>
      <point x="609" y="-8"/>
      <point x="728" y="112"/>
      <point x="728" y="306" type="curve" smooth="yes"/>
      <point x="728" y="900" type="line"/>
      <point x="548" y="900" type="line"/>
      <point x="548" y="306" type="line" smooth="yes"/>
      <point x="548" y="223"/>
      <point x="502" y="167"/>
      <point x="434" y="155" type="curve"/>
    </contour>
  </outline>
</glyph>
<glyph name="X" format="2">
  <advance width="870"/>
  <unicode hex="0058"/>
  <outline>
    <contour>
      <point x="661" y="0" type="line"/>
      <point x="870" y="0" type="line"/>
      <point x="284" y="900" type="line"/>
      <point x="78" y="900" type="line"/>
    </contour>
    <contour>
      <point x="6" y="0" type="line"/>
      <point x="209" y="0" type="line"/>
      <point x="390" y="308" type="line"/>
      <point x="284" y="471" type="line"/>
    </contour>
    <contour>
      <point x="582" y="553" type="line"/>
      <point x="792" y="900" type="line"/>
      <point x="596" y="900" type="line"/>
      <point x="479" y="711" type="line"/>
    </contour>
  </outline>
</glyph>
<glyph name="Y" format="2">
  <advance width="710"/>
  <unicode hex="0059"/>
  <anchor x="356" y="0" name="bottom"/>
  <anchor x="356" y="900" name="top"/>
  <anchor x="33" y="900" name="topleft"/>
  <outline>
    <contour>
      <point x="265" y="0" type="line"/>
      <point x="445" y="0" type="line"/>
      <point x="445" y="426" type="line"/>
      <point x="208" y="900" type="line"/>
      <point x="6" y="900" type="line"/>
      <point x="265" y="426" type="line"/>
    </contour>
    <contour>
      <point x="483" y="496" type="line"/>
      <point x="704" y="900" type="line"/>
      <point x="514" y="901" type="line"/>
      <point x="394" y="673" type="line"/>
    </contour>
  </outline>
</glyph>
<glyph name="d" format="2">
  <advance width="740"/>
  <unicode hex="0064"/>
  <anchor x="371" y="0" name="bottom"/>
  <anchor x="592" y="780" name="center"/>
  <anchor x="371" y="600" name="top"/>
  <anchor x="674" y="960" name="topright"/>
  <outline>
    <contour>
      <point x="337" y="-16" type="curve" smooth="yes"/>
      <point x="374" y="-16"/>
      <point x="409" y="-9"/>
      <point x="440" y="3" type="curve"/>
      <point x="440" y="161" type="line"/>
      <point x="415" y="146"/>
      <point x="387" y="137"/>
      <point x="357" y="137" type="curve" smooth="yes"/>
      <point x="269" y="137"/>
      <point x="198" y="210"/>
      <point x="198" y="300" type="curve" smooth="yes"/>
      <point x="198" y="390"/>
      <point x="269" y="463"/>
      <point x="357" y="463" type="curve" smooth="yes"/>
      <point x="387" y="463"/>
      <point x="416" y="454"/>
      <point x="440" y="439" type="curve"/>
      <point x="440" y="597" type="line"/>
      <point x="409" y="609"/>
      <point x="374" y="616"/>
      <point x="337" y="616" type="curve" smooth="yes"/>
      <point x="170" y="616"/>
      <point x="36" y="474"/>
      <point x="36" y="300" type="curve" smooth="yes"/>
      <point x="36" y="126"/>
      <point x="170" y="-16"/>
    </contour>
    <contour>
      <point x="500" y="0" type="line"/>
      <point x="674" y="0" type="line"/>
      <point x="674" y="960" type="line"/>
      <point x="500" y="960" type="line"/>
    </contour>
  </outline>
</glyph>
<glyph name="h" format="2">
  <advance width="700"/>
  <unicode hex="0068"/>
  <anchor x="360" y="0" name="bottom"/>
  <anchor x="150" y="780" name="center"/>
  <anchor x="150" y="960" name="top"/>
  <outline>
    <contour>
      <point x="472" y="0" type="line"/>
      <point x="646" y="0" type="line"/>
      <point x="646" y="359" type="line" smooth="yes"/>
      <point x="646" y="525"/>
      <point x="529" y="620"/>
      <point x="402" y="620" type="curve" smooth="yes"/>
      <point x="365" y="620"/>
      <point x="331" y="612"/>
      <point x="300" y="597" type="curve"/>
      <point x="300" y="451" type="line"/>
      <point x="317" y="460"/>
      <point x="336" y="464"/>
      <point x="356" y="464" type="curve" smooth="yes"/>
      <point x="430" y="464"/>
      <point x="472" y="403"/>
      <point x="472" y="336" type="curve" smooth="yes"/>
    </contour>
    <contour>
      <point x="66" y="0" type="line"/>
      <point x="240" y="0" type="line"/>
      <point x="240" y="960" type="line"/>
      <point x="66" y="960" type="line"/>
    </contour>
  </outline>
</glyph>
<glyph name="k" format="2">
  <advance width="670"/>
  <unicode hex="006B"/>
  <anchor x="330" y="0" name="bottom"/>
  <anchor x="150" y="960" name="top"/>
  <outline>
    <contour>
      <point x="465" y="0" type="line"/>
      <point x="670" y="0" type="line"/>
      <point x="396" y="372" type="line"/>
      <point x="382" y="300" type="line"/>
      <point x="610" y="600" type="line"/>
      <point x="423" y="600" type="line"/>
      <point x="300" y="432" type="line"/>
      <point x="300" y="227" type="line"/>
    </contour>
    <contour>
      <point x="66" y="0" type="line"/>
      <point x="240" y="0" type="line"/>
      <point x="240" y="960" type="line"/>
      <point x="66" y="960" type="line"/>
    </contour>
  </outline>
</glyph>
<glyph name="o" format="2">
  <advance width="720"/>
  <unicode hex="006F"/>
  <anchor x="360" y="0" name="bottom"/>
  <anchor x="360" y="300" name="center"/>
  <anchor x="390" y="0" name="ogonek"/>
  <anchor x="360" y="600" name="top"/>
  <anchor x="520" y="600" name="topright"/>
  <outline>
    <contour>
      <point x="394" y="-19" type="line"/>
      <point x="557" y="-4"/>
      <point x="684" y="133"/>
      <point x="684" y="300" type="curve" smooth="yes"/>
      <point x="684" y="467"/>
      <point x="557" y="604"/>
      <point x="394" y="619" type="curve"/>
      <point x="394" y="461" type="line"/>
      <point x="466" y="447"/>
      <point x="521" y="381"/>
      <point x="521" y="300" type="curve" smooth="yes"/>
      <point x="521" y="219"/>
      <point x="466" y="153"/>
      <point x="394" y="139" type="curve"/>
    </contour>
    <contour>
      <point x="326" y="-19" type="curve"/>
      <point x="326" y="139" type="line"/>
      <point x="253" y="153"/>
      <point x="199" y="219"/>
      <point x="199" y="300" type="curve" smooth="yes"/>
      <point x="199" y="381"/>
      <point x="253" y="447"/>
      <point x="326" y="461" type="curve"/>
      <point x="326" y="619" type="line"/>
      <point x="163" y="604"/>
      <point x="36" y="467"/>
      <point x="36" y="300" type="curve" smooth="yes"/>
      <point x="36" y="133"/>
      <point x="163" y="-4"/>
    </contour>
  </outline>
</glyph>
<glyph name="asciitilde" format="2">
  <advance width="750"/>
  <unicode hex="007E"/>
  <outline>
    <contour>
      <point x="101" y="319" type="line"/>
      <point x="129" y="382"/>
      <point x="171" y="420"/>
      <point x="228" y="420" type="curve" smooth="yes"/>
      <point x="312" y="420"/>
      <point x="393" y="336"/>
      <point x="509" y="336" type="curve" smooth="yes"/>
      <point x="594" y="336"/>
      <point x="670" y="382"/>
      <point x="713" y="460" type="curve"/>
      <point x="642" y="581" type="line"/>
      <point x="614" y="518"/>
      <point x="572" y="480"/>
      <point x="515" y="480" type="curve" smooth="yes"/>
      <point x="431" y="480"/>
      <point x="350" y="564"/>
      <point x="234" y="564" type="curve" smooth="yes"/>
      <point x="149" y="564"/>
      <point x="73" y="518"/>
      <point x="30" y="440" type="curve"/>
    </contour>
  </outline>
</glyph>
<glyph name="yen" format="2">
  <advance width="750"/>
  <unicode hex="00A5"/>
  <anchor x="53" y="900" name="topleft"/>
  <outline>
    <contour>
      <point x="238" y="513" type="line"/>
      <point x="512" y="513" type="line"/>
      <point x="724" y="900" type="line"/>
      <point x="534" y="901" type="line"/>
      <point x="427" y="698" type="line" smooth="yes"/>
      <point x="406" y="659"/>
      <point x="387" y="624"/>
      <point x="365" y="557" type="curve"/>
      <point x="394" y="557" type="line"/>
      <point x="375" y="623"/>
      <point x="354" y="660"/>
      <point x="334" y="698" type="curve" smooth="yes"/>
      <point x="228" y="900" type="line"/>
      <point x="26" y="900" type="line"/>
    </contour>
    <contour>
      <point x="285" y="0" type="line"/>
      <point x="465" y="0" type="line"/>
      <point x="465" y="240" type="line"/>
      <point x="285" y="240" type="line"/>
    </contour>
    <contour>
      <point x="72" y="294" type="line"/>
      <point x="678" y="294" type="line"/>
      <point x="678" y="402" type="line"/>
      <point x="72" y="402" type="line"/>
    </contour>
    <contour>
      <point x="72" y="498" type="line"/>
      <point x="678" y="498" type="line"/>
      <point x="678" y="606" type="line"/>
      <point x="451" y="606" type="line"/>
      <point x="385" y="543" type="line"/>
      <point x="303" y="606" type="line"/>
      <point x="72" y="606" type="line"/>
    </contour>
  </outline>
</glyph>
<glyph name="section" format="2">
  <advance width="750"/>
  <unicode hex="00A7"/>
  <outline>
    <contour>
      <point x="426" y="-186" type="line"/>
      <point x="541" y="-163"/>
      <point x="621" y="-74"/>
      <point x="621" y="45" type="curve" smooth="yes"/>
      <point x="621" y="143"/>
      <point x="571" y="211"/>
      <point x="474" y="254" type="curve" smooth="yes"/>
      <point x="308" y="327" type="line"/>
      <point x="268" y="348"/>
      <point x="210" y="373"/>
      <point x="210" y="435" type="curve" smooth="yes"/>
      <point x="210" y="465"/>
      <point x="223" y="491"/>
      <point x="246" y="509" type="curve"/>
      <point x="122" y="565" type="line"/>
      <point x="81" y="526"/>
      <point x="57" y="473"/>
      <point x="57" y="409" type="curve" smooth="yes"/>
      <point x="57" y="274"/>
      <point x="168" y="223"/>
      <point x="228" y="195" type="curve" smooth="yes"/>
      <point x="399" y="116" type="line" smooth="yes"/>
      <point x="419" y="107"/>
      <point x="468" y="83"/>
      <point x="468" y="30" type="curve" smooth="yes"/>
      <point x="468" y="0"/>
      <point x="453" y="-26"/>
      <point x="426" y="-41" type="curve"/>
    </contour>
    <contour>
      <point x="362" y="-192" type="curve"/>
      <point x="362" y="-54" type="line"/>
      <point x="299" y="-54"/>
      <point x="222" y="-3"/>
      <point x="188" y="46" type="curve"/>
      <point x="145" y="-118" type="line"/>
      <point x="192" y="-163"/>
      <point x="282" y="-192"/>
    </contour>
    <contour>
      <point x="630" y="258" type="line"/>
      <point x="669" y="295"/>
      <point x="693" y="347"/>
      <point x="693" y="409" type="curve" smooth="yes"/>
      <point x="693" y="541"/>
      <point x="585" y="598"/>
      <point x="522" y="627" type="curve" smooth="yes"/>
      <point x="356" y="705" type="line" smooth="yes"/>
      <point x="330" y="717"/>
      <point x="306" y="737"/>
      <point x="306" y="771" type="curve" smooth="yes"/>
      <point x="306" y="796"/>
      <point x="319" y="818"/>
      <point x="344" y="828" type="curve"/>
      <point x="344" y="969" type="line"/>
      <point x="229" y="953"/>
      <point x="153" y="867"/>
      <point x="153" y="755" type="curve" smooth="yes"/>
      <point x="153" y="672"/>
      <point x="188" y="606"/>
      <point x="287" y="563" type="curve" smooth="yes"/>
      <point x="442" y="495" type="line" smooth="yes"/>
      <point x="486" y="476"/>
      <point x="540" y="449"/>
      <point x="540" y="388" type="curve" smooth="yes"/>
      <point x="540" y="359"/>
      <point x="527" y="332"/>
      <point x="505" y="314" type="curve"/>
    </contour>
    <contour>
      <point x="550" y="743" type="curve"/>
      <point x="590" y="901" type="line"/>
      <point x="558" y="934"/>
      <point x="485" y="967"/>
      <point x="408" y="971" type="curve"/>
      <point x="408" y="832" type="line"/>
      <point x="455" y="824"/>
      <point x="511" y="793"/>
    </contour>
  </outline>
</glyph>
<glyph name="registered" format="2">
  <advance width="600"/>
  <unicode hex="00AE"/>
  <outline>
    <contour>
      <point x="330" y="395" type="line"/>
      <point x="467" y="408"/>
      <point x="575" y="522"/>
      <point x="575" y="660" type="curve" smooth="yes"/>
      <point x="575" y="798"/>
      <point x="467" y="912"/>
      <point x="330" y="925" type="curve"/>
      <point x="330" y="846" type="line"/>
      <point x="420" y="833"/>
      <point x="491" y="754"/>
      <point x="491" y="660" type="curve" smooth="yes"/>
      <point x="491" y="566"/>
      <point x="420" y="487"/>
      <point x="330" y="474" type="curve"/>
    </contour>
    <contour>
      <point x="270" y="395" type="curve"/>
      <point x="270" y="474" type="line"/>
      <point x="179" y="488"/>
      <point x="109" y="566"/>
      <point x="109" y="660" type="curve" smooth="yes"/>
      <point x="109" y="754"/>
      <point x="179" y="832"/>
      <point x="270" y="846" type="curve"/>
      <point x="270" y="925" type="line"/>
      <point x="132" y="911"/>
      <point x="25" y="798"/>
      <point x="25" y="660" type="curve" smooth="yes"/>
      <point x="25" y="522"/>
      <point x="132" y="409"/>
    </contour>
    <contour>
      <point x="203" y="546" type="line"/>
      <point x="275" y="546" type="line"/>
      <point x="275" y="786" type="line"/>
      <point x="203" y="786" type="line"/>
    </contour>
    <contour>
      <point x="342" y="546" type="line"/>
      <point x="423" y="546" type="line"/>
      <point x="366" y="627" type="line"/>
      <point x="394" y="641"/>
      <point x="411" y="667"/>
      <point x="411" y="700" type="curve" smooth="yes"/>
      <point x="411" y="744"/>
      <point x="378" y="782"/>
      <point x="323" y="786" type="curve"/>
      <point x="323" y="725" type="line"/>
      <point x="333" y="720"/>
      <point x="339" y="711"/>
      <point x="339" y="699" type="curve" smooth="yes"/>
      <point x="339" y="688"/>
      <point x="334" y="679"/>
      <point x="323" y="673" type="curve"/>
      <point x="323" y="574" type="line"/>
    </contour>
  </outline>
</glyph>
<glyph name="questiondown" format="2">
  <advance width="480"/>
  <unicode hex="00BF"/>
  <outline>
    <contour>
      <point x="180" y="-312" type="curve"/>
      <point x="180" y="-83" type="line" smooth="yes"/>
      <point x="180" y="17"/>
      <point x="306" y="74"/>
      <point x="306" y="268" type="curve"/>
      <point x="174" y="268" type="line"/>
      <point x="155" y="128"/>
      <point x="18" y="58"/>
      <point x="18" y="-101" type="curve" smooth="yes"/>
      <point x="18" y="-207"/>
      <point x="79" y="-287"/>
    </contour>
    <contour>
      <point x="260" y="-320" type="curve" smooth="yes"/>
      <point x="315" y="-320"/>
      <point x="368" y="-300"/>
      <point x="414" y="-266" type="curve"/>
      <point x="414" y="-92" type="line"/>
      <point x="385" y="-126"/>
      <point x="339" y="-164"/>
      <point x="276" y="-164" type="curve" smooth="yes"/>
      <point x="260" y="-164"/>
      <point x="246" y="-162"/>
      <point x="234" y="-158" type="curve"/>
      <point x="234" y="-318" type="line"/>
      <point x="245" y="-320"/>
      <point x="251" y="-320"/>
    </contour>
    <contour>
      <point x="240" y="408" type="curve" smooth="yes"/>
      <point x="299" y="408"/>
      <point x="345" y="454"/>
      <point x="345" y="513" type="curve" smooth="yes"/>
      <point x="345" y="572"/>
      <point x="299" y="618"/>
      <point x="240" y="618" type="curve" smooth="yes"/>
      <point x="181" y="618"/>
      <point x="135" y="572"/>
      <point x="135" y="513" type="curve" smooth="yes"/>
      <point x="135" y="454"/>
      <point x="181" y="408"/>
    </contour>
  </outline>
</glyph>
<glyph name="germandbls" format="2">
  <advance width="720"/>
  <unicode hex="00DF"/>
  <outline>
    <contour>
      <point x="66" y="0" type="line"/>
      <point x="240" y="0" type="line"/>
      <point x="240" y="718" type="line" smooth="yes"/>
      <point x="240" y="768"/>
      <point x="267" y="806"/>
      <point x="306" y="819" type="curve"/>
      <point x="306" y="979" type="line"/>
      <point x="173" y="966"/>
      <point x="66" y="866"/>
      <point x="66" y="719" type="curve" smooth="yes"/>
    </contour>
    <contour>
      <point x="364" y="-17" type="line"/>
      <point x="528" y="-17"/>
      <point x="684" y="128"/>
      <point x="684" y="321" type="curve" smooth="yes"/>
      <point x="684" y="419"/>
      <point x="644" y="503"/>
      <point x="580" y="562" type="curve"/>
      <point x="546" y="524"/>
      <point x="500" y="492"/>
      <point x="445" y="465" type="curve"/>
      <point x="482" y="426"/>
      <point x="504" y="377"/>
      <point x="504" y="319" type="curve" smooth="yes"/>
      <point x="504" y="210"/>
      <point x="425" y="145"/>
      <point x="327" y="139" type="curve"/>
    </contour>
    <contour>
      <point x="398" y="505" type="curve"/>
      <point x="564" y="593"/>
      <point x="595" y="663"/>
      <point x="595" y="740" type="curve" smooth="yes"/>
      <point x="595" y="868"/>
      <point x="498" y="965"/>
      <point x="366" y="978" type="curve"/>
      <point x="366" y="820" type="line"/>
      <point x="406" y="807"/>
      <point x="433" y="770"/>
      <point x="433" y="721" type="curve" smooth="yes"/>
      <point x="433" y="661"/>
      <point x="389" y="600"/>
      <point x="303" y="552" type="curve"/>
      <point x="338" y="539"/>
      <point x="370" y="523"/>
    </contour>
  </outline>
</glyph>
<glyph name="hbar" format="2">
  <advance width="700"/>
  <unicode hex="0127"/>
  <outline>
    <contour>
      <point x="472" y="0" type="line"/>
      <point x="646" y="0" type="line"/>
      <point x="646" y="359" type="line" smooth="yes"/>
      <point x="646" y="525"/>
      <point x="529" y="620"/>
      <point x="402" y="620" type="curve" smooth="yes"/>
      <point x="365" y="620"/>
      <point x="331" y="612"/>
      <point x="300" y="597" type="curve"/>
      <point x="300" y="451" type="line"/>
      <point x="317" y="460"/>
      <point x="336" y="464"/>
      <point x="356" y="464" type="curve" smooth="yes"/>
      <point x="430" y="464"/>
      <point x="472" y="403"/>
      <point x="472" y="336" type="curve" smooth="yes"/>
    </contour>
    <contour>
      <point x="66" y="0" type="line"/>
      <point x="234" y="0" type="line"/>
      <point x="234" y="672" type="line"/>
      <point x="66" y="672" type="line"/>
    </contour>
    <contour>
      <point x="9" y="726" type="line"/>
      <point x="425" y="726" type="line"/>
      <point x="425" y="834" type="line"/>
      <point x="228" y="834" type="line"/>
      <point x="228" y="960" type="line"/>
      <point x="66" y="960" type="line"/>
      <point x="66" y="834" type="line"/>
      <point x="9" y="834" type="line"/>
    </contour>
  </outline>
</glyph>
<glyph name="idotless" format="2">
  <advance width="310"/>
  <unicode hex="0131"/>
  <anchor x="155" y="0" name="bottom"/>
  <anchor x="155" y="0" name="ogonek"/>
  <anchor x="155" y="600" name="top"/>
  <outline>
    <contour>
      <point x="68" y="0" type="line"/>
      <point x="242" y="0" type="line"/>
      <point x="242" y="600" type="line"/>
      <point x="68" y="600" type="line"/>
    </contour>
  </outline>
</glyph>
<glyph name="kgreenlandic" format="2">
  <advance width="670"/>
  <unicode hex="0138"/>
  <anchor x="346" y="0" name="bottom"/>
  <anchor x="300" y="600" name="top"/>
  <outline>
    <contour>
      <point x="465" y="0" type="line"/>
      <point x="670" y="0" type="line"/>
      <point x="396" y="372" type="line"/>
      <point x="382" y="300" type="line"/>
      <point x="610" y="600" type="line"/>
      <point x="423" y="600" type="line"/>
      <point x="300" y="432" type="line"/>
      <point x="300" y="227" type="line"/>
    </contour>
    <contour>
      <point x="66" y="0" type="line"/>
      <point x="234" y="0" type="line"/>
      <point x="234" y="600" type="line"/>
      <point x="66" y="600" type="line"/>
    </contour>
  </outline>
</glyph>
<glyph name="Eng" format="2">
  <advance width="990"/>
  <unicode hex="014A"/>
  <anchor x="495" y="0" name="bottom"/>
  <anchor x="495" y="900" name="top"/>
  <outline>
    <contour>
      <point x="636" y="-188" type="line"/>
      <point x="731" y="-159"/>
      <point x="804" y="-78"/>
      <point x="804" y="66" type="curve" smooth="yes"/>
      <point x="804" y="198" type="line"/>
      <point x="96" y="930" type="line"/>
      <point x="96" y="675" type="line"/>
      <point x="636" y="118" type="line"/>
    </contour>
    <contour>
      <point x="541" y="-200" type="curve" smooth="yes"/>
      <point x="551" y="-200"/>
      <point x="562" y="-199"/>
      <point x="572" y="-197" type="curve"/>
      <point x="572" y="-22" type="line"/>
      <point x="557" y="-29"/>
      <point x="540" y="-32"/>
      <point x="522" y="-32" type="curve" smooth="yes"/>
      <point x="472" y="-32"/>
      <point x="431" y="-6"/>
      <point x="405" y="34" type="curve"/>
      <point x="358" y="-134" type="line"/>
      <point x="403" y="-179"/>
      <point x="473" y="-200"/>
    </contour>
    <contour>
      <point x="96" y="0" type="line"/>
      <point x="264" y="0" type="line"/>
      <point x="264" y="423" type="line"/>
      <point x="96" y="597" type="line"/>
    </contour>
    <contour>
      <point x="804" y="279" type="line"/>
      <point x="804" y="900" type="line"/>
      <point x="636" y="900" type="line"/>
      <point x="636" y="452" type="line"/>
    </contour>
  </outline>
</glyph>
<glyph name="Ohorn" format="2">
  <advance width="1060"/>
  <unicode hex="01A0"/>
  <anchor x="530" y="0" name="bottom"/>
  <anchor x="530" y="0" name="ogonek"/>
  <anchor x="530" y="900" name="top"/>
  <outline>
    <contour>
      <point x="564" y="-17" type="line"/>
      <point x="811" y="0"/>
      <point x="1006" y="202"/>
      <point x="1006" y="450" type="curve" smooth="yes"/>
      <point x="1006" y="698"/>
      <point x="811" y="900"/>
      <point x="564" y="917" type="curve"/>
      <point x="564" y="742" type="line"/>
      <point x="709" y="725"/>
      <point x="818" y="602"/>
      <point x="818" y="450" type="curve" smooth="yes"/>
      <point x="818" y="298"/>
      <point x="709" y="175"/>
      <point x="564" y="158" type="curve"/>
    </contour>
    <contour>
      <point x="496" y="-17" type="curve"/>
      <point x="496" y="158" type="line"/>
      <point x="351" y="175"/>
      <point x="242" y="299"/>
      <point x="242" y="450" type="curve" smooth="yes"/>
      <point x="242" y="601"/>
      <point x="351" y="725"/>
      <point x="496" y="742" type="curve"/>
      <point x="496" y="917" type="line"/>
      <point x="249" y="900"/>
      <point x="54" y="698"/>
      <point x="54" y="450" type="curve" smooth="yes"/>
      <point x="54" y="202"/>
      <point x="249" y="0"/>
    </contour>
    <contour>
      <point x="962" y="713" type="line"/>
      <point x="1005" y="743"/>
      <point x="1030" y="796"/>
      <point x="1030" y="868" type="curve" smooth="yes"/>
      <point x="1030" y="897"/>
      <point x="1025" y="928"/>
      <point x="1006" y="960" type="curve"/>
      <point x="850" y="960" type="line"/>
      <point x="869" y="927"/>
      <point x="874" y="892"/>
      <point x="874" y="868" type="curve" smooth="yes"/>
      <point x="874" y="852"/>
      <point x="872" y="838"/>
      <point x="868" y="827" type="curve"/>
      <point x="858" y="860" type="line"/>
      <point x="909" y="821"/>
      <point x="952" y="773"/>
      <point x="985" y="719" type="curve"/>
    </contour>
  </outline>
</glyph>
<glyph name="ohorn" format="2">
  <advance width="770"/>
  <unicode hex="01A1"/>
  <anchor x="360" y="0" name="bottom"/>
  <anchor x="360" y="600" name="top"/>
  <outline>
    <contour>
      <point x="394" y="-19" type="line"/>
      <point x="557" y="-4"/>
      <point x="684" y="133"/>
      <point x="684" y="300" type="curve" smooth="yes"/>
      <point x="684" y="467"/>
      <point x="557" y="604"/>
      <point x="394" y="619" type="curve"/>
      <point x="394" y="461" type="line"/>
      <point x="466" y="447"/>
      <point x="521" y="381"/>
      <point x="521" y="300" type="curve" smooth="yes"/>
      <point x="521" y="219"/>
      <point x="466" y="153"/>
      <point x="394" y="139" type="curve"/>
    </contour>
    <contour>
      <point x="326" y="-19" type="curve"/>
      <point x="326" y="139" type="line"/>
      <point x="253" y="153"/>
      <point x="199" y="219"/>
      <point x="199" y="300" type="curve" smooth="yes"/>
      <point x="199" y="381"/>
      <point x="253" y="447"/>
      <point x="326" y="461" type="curve"/>
      <point x="326" y="619" type="line"/>
      <point x="163" y="604"/>
      <point x="36" y="467"/>
      <point x="36" y="300" type="curve" smooth="yes"/>
      <point x="36" y="133"/>
      <point x="163" y="-4"/>
    </contour>
    <contour>
      <point x="725" y="398" type="curve"/>
      <point x="681" y="413" type="line"/>
      <point x="730" y="437"/>
      <point x="766" y="490"/>
      <point x="766" y="568" type="curve" smooth="yes"/>
      <point x="766" y="597"/>
      <point x="761" y="628"/>
      <point x="742" y="660" type="curve"/>
      <point x="598" y="660" type="line"/>
      <point x="617" y="627"/>
      <point x="622" y="592"/>
      <point x="622" y="568" type="curve" smooth="yes"/>
      <point x="622" y="549"/>
      <point x="619" y="533"/>
      <point x="613" y="520" type="curve"/>
      <point x="590" y="593" type="line"/>
      <point x="655" y="544"/>
      <point x="703" y="479"/>
    </contour>
  </outline>
</glyph>
<glyph name="uhorn" format="2">
  <advance width="840"/>
  <unicode hex="01B0"/>
  <anchor x="348" y="0" name="bottom"/>
  <anchor x="344" y="600" name="top"/>
  <outline>
    <contour>
      <point x="688" y="387" type="line"/>
      <point x="768" y="393"/>
      <point x="836" y="456"/>
      <point x="836" y="568" type="curve" smooth="yes"/>
      <point x="836" y="597"/>
      <point x="831" y="628"/>
      <point x="812" y="660" type="curve"/>
      <point x="680" y="660" type="line"/>
      <point x="699" y="627"/>
      <point x="704" y="592"/>
      <point x="704" y="568" type="curve" smooth="yes"/>
      <point x="704" y="544"/>
      <point x="698" y="527"/>
      <point x="688" y="515" type="curve"/>
    </contour>
    <contour>
      <point x="298" y="-20" type="curve" smooth="yes"/>
      <point x="334" y="-20"/>
      <point x="369" y="-12"/>
      <point x="400" y="2" type="curve"/>
      <point x="400" y="150" type="line"/>
      <point x="383" y="141"/>
      <point x="364" y="136"/>
      <point x="344" y="136" type="curve" smooth="yes"/>
      <point x="270" y="136"/>
      <point x="228" y="197"/>
      <point x="228" y="264" type="curve" smooth="yes"/>
      <point x="228" y="600" type="line"/>
      <point x="54" y="600" type="line"/>
      <point x="54" y="241" type="line" smooth="yes"/>
      <point x="54" y="75"/>
      <point x="171" y="-20"/>
    </contour>
    <contour>
      <point x="460" y="0" type="line"/>
      <point x="634" y="0" type="line"/>
      <point x="634" y="600" type="line"/>
      <point x="460" y="600" type="line"/>
    </contour>
  </outline>
</glyph>
<glyph name="Ezh" format="2">
  <advance width="660"/>
  <unicode hex="01B7"/>
  <anchor x="302" y="0" name="bottom"/>
  <anchor x="330" y="900" name="top"/>
  <outline>
    <contour>
      <point x="329" y="-19" type="line"/>
      <point x="494" y="-4"/>
      <point x="630" y="128"/>
      <point x="630" y="299" type="curve" smooth="yes"/>
      <point x="630" y="447"/>
      <point x="527" y="565"/>
      <point x="397" y="597" type="curve"/>
      <point x="405" y="536" type="line"/>
      <point x="600" y="900" type="line"/>
      <point x="423" y="900" type="line"/>
      <point x="158" y="382" type="line"/>
      <point x="147" y="408" type="line"/>
      <point x="199" y="441"/>
      <point x="242" y="458"/>
      <point x="294" y="458" type="curve" smooth="yes"/>
      <point x="394" y="458"/>
      <point x="460" y="388"/>
      <point x="460" y="301" type="curve" smooth="yes"/>
      <point x="460" y="221"/>
      <point x="404" y="157"/>
      <point x="329" y="144" type="curve"/>
    </contour>
    <contour>
      <point x="265" y="-19" type="curve"/>
      <point x="265" y="145" type="line"/>
      <point x="178" y="161"/>
      <point x="116" y="241"/>
      <point x="109" y="329" type="curve"/>
      <point x="130" y="341" type="line"/>
      <point x="-7" y="70" type="line"/>
      <point x="7" y="143" type="line"/>
      <point x="56" y="56"/>
      <point x="152" y="-9"/>
    </contour>
    <contour>
      <point x="72" y="744" type="line"/>
      <point x="278" y="744" type="line"/>
      <point x="358" y="900" type="line"/>
      <point x="72" y="900" type="line"/>
    </contour>
  </outline>
</glyph>
<glyph name="schwa" format="2">
  <advance width="690"/>
  <unicode hex="0259"/>
  <anchor x="346" y="0" name="bottom"/>
  <anchor x="60" y="590" name="ogonek"/>
  <anchor x="346" y="600" name="top"/>
  <outline>
    <contour>
      <point x="132" y="396" type="line"/>
      <point x="166" y="436"/>
      <point x="218" y="468"/>
      <point x="283" y="475" type="curve"/>
      <point x="283" y="619" type="line"/>
      <point x="212" y="614"/>
      <point x="147" y="591"/>
      <point x="94" y="552" type="curve"/>
    </contour>
    <contour>
      <point x="370" y="-19" type="line"/>
      <point x="531" y="-4"/>
      <point x="654" y="124"/>
      <point x="654" y="294" type="curve" smooth="yes"/>
      <point x="654" y="474"/>
      <point x="530" y="606"/>
      <point x="347" y="619" type="curve"/>
      <point x="347" y="474" type="line"/>
      <point x="438" y="460"/>
      <point x="494" y="391"/>
      <point x="494" y="300" type="curve"/>
      <point x="503" y="300" type="line"/>
      <point x="503" y="202"/>
      <point x="449" y="134"/>
      <point x="370" y="120" type="curve"/>
    </contour>
    <contour>
      <point x="310" y="-19" type="curve"/>
      <point x="310" y="120" type="line"/>
      <point x="230" y="135"/>
      <point x="181" y="203"/>
      <point x="181" y="300" type="curve"/>
      <point x="152" y="244" type="line"/>
      <point x="194" y="231"/>
      <point x="237" y="225"/>
      <point x="290" y="225" type="curve" smooth="yes"/>
      <point x="396" y="225" type="line" smooth="yes"/>
      <point x="443" y="225"/>
      <point x="485" y="233"/>
      <point x="532" y="245" type="curve"/>
      <point x="532" y="331" type="line"/>
      <point x="485" y="343"/>
      <point x="443" y="351"/>
      <point x="396" y="351" type="curve" smooth="yes"/>
      <point x="30" y="351" type="line"/>
      <point x="30" y="290" type="line" smooth="yes"/>
      <point x="30" y="123"/>
      <point x="148" y="-5"/>
    </contour>
  </outline>
</glyph>
<glyph name="ezh" format="2">
  <advance width="660"/>
  <unicode hex="0292"/>
  <anchor x="305" y="-300" name="bottom"/>
  <anchor x="323" y="600" name="top"/>
  <outline>
    <contour>
      <point x="321" y="-319" type="line"/>
      <point x="487" y="-304"/>
      <point x="624" y="-173"/>
      <point x="624" y="-4" type="curve" smooth="yes"/>
      <point x="624" y="130"/>
      <point x="538" y="239"/>
      <point x="423" y="281" type="curve"/>
      <point x="594" y="600" type="line"/>
      <point x="417" y="600" type="line"/>
      <point x="175" y="128" type="line"/>
      <point x="213" y="148"/>
      <point x="248" y="158"/>
      <point x="288" y="158" type="curve" smooth="yes"/>
      <point x="388" y="158"/>
      <point x="454" y="88"/>
      <point x="454" y="1" type="curve" smooth="yes"/>
      <point x="454" y="-79"/>
      <point x="397" y="-143"/>
      <point x="321" y="-156" type="curve"/>
    </contour>
    <contour>
      <point x="262" y="-319" type="curve"/>
      <point x="262" y="-155" type="line"/>
      <point x="185" y="-142"/>
      <point x="128" y="-79"/>
      <point x="109" y="-5" type="curve"/>
      <point x="18" y="-184" type="line"/>
      <point x="71" y="-258"/>
      <point x="159" y="-311"/>
    </contour>
    <contour>
      <point x="78" y="444" type="line"/>
      <point x="272" y="444" type="line"/>
      <point x="351" y="600" type="line"/>
      <point x="78" y="600" type="line"/>
    </contour>
  </outline>
</glyph>
<glyph name="gravecomb" format="2">
  <unicode hex="0300"/>
  <anchor x="422" y="600" name="_top"/>
  <outline>
    <contour>
      <point x="354" y="690" type="line"/>
      <point x="491" y="690" type="line"/>
      <point x="410" y="870" type="line"/>
      <point x="221" y="870" type="line"/>
    </contour>
  </outline>
</glyph>
<glyph name="quoteleft" format="2">
  <advance width="290"/>
  <unicode hex="2018"/>
  <outline>
    <contour>
      <point x="37" y="570" type="curve"/>
      <point x="205" y="570" type="line"/>
      <point x="205" y="711"/>
      <point x="247" y="818"/>
      <point x="304" y="900" type="curve"/>
      <point x="129" y="900" type="line"/>
      <point x="67" y="807"/>
      <point x="37" y="696"/>
    </contour>
  </outline>
</glyph>
<glyph name="quotesinglbase" format="2">
  <advance width="290"/>
  <unicode hex="201A"/>
  <outline>
    <contour>
      <point x="-13" y="-150" type="curve"/>
      <point x="162" y="-150" type="line"/>
      <point x="224" y="-57"/>
      <point x="254" y="54"/>
      <point x="254" y="180" type="curve"/>
      <point x="86" y="180" type="line"/>
      <point x="86" y="39"/>
      <point x="44" y="-68"/>
    </contour>
  </outline>
</glyph>
<glyph name="guilsinglleft" format="2">
  <advance width="360"/>
  <unicode hex="2039"/>
  <outline>
    <contour>
      <point x="177" y="60" type="line"/>
      <point x="339" y="60" type="line"/>
      <point x="177" y="300" type="line"/>
      <point x="339" y="540" type="line"/>
      <point x="177" y="540" type="line"/>
      <point x="15" y="300" type="line"/>
    </contour>
  </outline>
</glyph>
<glyph name="euro" format="2">
  <advance width="750"/>
  <unicode hex="20AC"/>
  <outline>
    <contour>
      <point x="164" y="514" type="curve"/>
      <point x="332" y="514" type="line"/>
      <point x="342" y="644"/>
      <point x="384" y="731"/>
      <point x="456" y="756" type="curve"/>
      <point x="456" y="917" type="line"/>
      <point x="294" y="896"/>
      <point x="182" y="740"/>
    </contour>
    <contour>
      <point x="456" y="-17" type="curve"/>
      <point x="456" y="144" type="line"/>
      <point x="389" y="167"/>
      <point x="348" y="246"/>
      <point x="335" y="362" type="curve"/>
      <point x="167" y="362" type="line"/>
      <point x="191" y="148"/>
      <point x="300" y="4"/>
    </contour>
    <contour>
      <point x="72" y="294" type="line"/>
      <point x="558" y="294" type="line"/>
      <point x="558" y="402" type="line"/>
      <point x="72" y="402" type="line"/>
    </contour>
    <contour>
      <point x="516" y="-19" type="line"/>
      <point x="582" y="-15"/>
      <point x="649" y="13"/>
      <point x="702" y="61" type="curve"/>
      <point x="657" y="238" type="line"/>
      <point x="626" y="187"/>
      <point x="574" y="142"/>
      <point x="516" y="137" type="curve"/>
    </contour>
    <contour>
      <point x="72" y="498" type="line"/>
      <point x="558" y="498" type="line"/>
      <point x="558" y="606" type="line"/>
      <point x="72" y="606" type="line"/>
    </contour>
    <contour>
      <point x="657" y="662" type="curve"/>
      <point x="702" y="839" type="line"/>
      <point x="649" y="887"/>
      <point x="583" y="915"/>
      <point x="516" y="919" type="curve"/>
      <point x="516" y="763" type="line"/>
      <point x="575" y="757"/>
      <point x="626" y="712"/>
    </contour>
  </outline>
</glyph>
<glyph name="trademark" format="2">
  <advance width="840"/>
  <unicode hex="2122"/>
  <outline>
    <contour>
      <point x="586" y="546" type="line"/>
      <point x="790" y="788" type="line"/>
      <point x="790" y="933" type="line"/>
      <point x="588" y="707" type="line"/>
      <point x="386" y="930" type="line"/>
      <point x="386" y="783" type="line"/>
    </contour>
    <contour>
      <point x="123" y="540" type="line"/>
      <point x="237" y="540" type="line"/>
      <point x="237" y="750" type="line"/>
      <point x="123" y="750" type="line"/>
    </contour>
    <contour>
      <point x="26" y="798" type="line"/>
      <point x="334" y="798" type="line"/>
      <point x="334" y="900" type="line"/>
      <point x="26" y="900" type="line"/>
    </contour>
    <contour>
      <point x="386" y="540" type="line"/>
      <point x="494" y="540" type="line"/>
      <point x="494" y="577" type="line"/>
      <point x="386" y="705" type="line"/>
    </contour>
    <contour>
      <point x="676" y="540" type="line"/>
      <point x="790" y="540" type="line"/>
      <point x="790" y="708" type="line"/>
      <point x="676" y="574" type="line"/>
    </contour>
  </outline>
</glyph>
<glyph name="dek" format="2">
  <advance width="750"/>
  <unicode hex="218A"/>
  <outline>
    <contour>
      <point x="352" y="-19" type="curve"/>
      <point x="352" y="146" type="line"/>
      <point x="298" y="159"/>
      <point x="259" y="206"/>
      <point x="259" y="264" type="curve" smooth="yes"/>
      <point x="259" y="290"/>
      <point x="267" y="317"/>
      <point x="298" y="363" type="curve" smooth="yes"/>
      <point x="664" y="900" type="line"/>
      <point x="477" y="901" type="line"/>
      <point x="158" y="452" type="line" smooth="yes"/>
      <point x="107" y="381"/>
      <point x="85" y="328"/>
      <point x="85" y="264" type="curve" smooth="yes"/>
      <point x="85" y="117"/>
      <point x="205" y="-4"/>
    </contour>
    <contour>
      <point x="416" y="-18" type="line"/>
      <point x="565" y="-3"/>
      <point x="676" y="122"/>
      <point x="676" y="263" type="curve" smooth="yes"/>
      <point x="676" y="305"/>
      <point x="666" y="344"/>
      <point x="645" y="382" type="curve"/>
      <point x="449" y="382" type="line"/>
      <point x="488" y="349"/>
      <point x="508" y="308"/>
      <point x="508" y="264" type="curve" smooth="yes"/>
      <point x="508" y="206"/>
      <point x="469" y="158"/>
      <point x="416" y="145" type="curve"/>
    </contour>
    <contour>
      <point x="74" y="738" type="line"/>
      <point x="295" y="738" type="line"/>
      <point x="410" y="900" type="line"/>
      <point x="74" y="900" type="line"/>
    </contour>
  </outline>
</glyph>
<glyph name="braceright.titl" format="2">
  <advance width="480"/>
  <outline>
    <contour>
      <point x="75" y="-186" type="line"/>
      <point x="222" y="-186"/>
      <point x="327" y="-108"/>
      <point x="327" y="61" type="curve" smooth="yes"/>
      <point x="327" y="120"/>
      <point x="314" y="194"/>
      <point x="314" y="239" type="curve" smooth="yes"/>
      <point x="314" y="322"/>
      <point x="357" y="354"/>
      <point x="444" y="390" type="curve"/>
      <point x="357" y="426"/>
      <point x="314" y="458"/>
      <point x="314" y="541" type="curve" smooth="yes"/>
      <point x="314" y="586"/>
      <point x="327" y="660"/>
      <point x="327" y="719" type="curve" smooth="yes"/>
      <point x="327" y="888"/>
      <point x="222" y="966"/>
      <point x="75" y="966" type="curve"/>
      <point x="60" y="901" type="line"/>
      <point x="180" y="901"/>
      <point x="251" y="853"/>
      <point x="251" y="709" type="curve" smooth="yes"/>
      <point x="251" y="649"/>
      <point x="237" y="580"/>
      <point x="237" y="535" type="curve" smooth="yes"/>
      <point x="237" y="440"/>
      <point x="298" y="380"/>
      <point x="397" y="380" type="curve"/>
      <point x="397" y="400" type="line"/>
      <point x="298" y="400"/>
      <point x="237" y="340"/>
      <point x="237" y="245" type="curve" smooth="yes"/>
      <point x="237" y="200"/>
      <point x="251" y="131"/>
      <point x="251" y="71" type="curve" smooth="yes"/>
      <point x="251" y="-73"/>
      <point x="179" y="-121"/>
      <point x="60" y="-121" type="curve"/>
    </contour>
  </outline>
</glyph>
<glyph name="bracketright.titl" format="2">
  <advance width="480"/>
  <outline>
    <contour>
      <point x="60" y="-180" type="line"/>
      <point x="350" y="-180" type="line"/>
      <point x="350" y="960" type="line"/>
      <point x="60" y="960" type="line"/>
      <point x="60" y="890" type="line"/>
      <point x="274" y="890" type="line"/>
      <point x="274" y="-110" type="line"/>
      <point x="60" y="-110" type="line"/>
    </contour>
  </outline>
</glyph>
<glyph name="careof.titl" format="2">
  <advance width="960"/>
  <outline>
    <contour>
      <point x="105" y="0" type="line"/>
      <point x="195" y="0" type="line"/>
      <point x="813" y="900" type="line"/>
      <point x="723" y="900" type="line"/>
    </contour>
    <contour>
      <point x="692" y="-16" type="curve"/>
      <point x="692" y="104" type="line"/>
      <point x="658" y="116"/>
      <point x="637" y="145"/>
      <point x="637" y="180" type="curve" smooth="yes"/>
      <point x="637" y="215"/>
      <point x="658" y="244"/>
      <point x="692" y="256" type="curve"/>
      <point x="692" y="376" type="line"/>
      <point x="590" y="362"/>
      <point x="514" y="279"/>
      <point x="514" y="180" type="curve" smooth="yes"/>
      <point x="514" y="81"/>
      <point x="590" y="-2"/>
    </contour>
    <contour>
      <point x="212" y="524" type="curve"/>
      <point x="212" y="646" type="line"/>
      <point x="182" y="659"/>
      <point x="163" y="687"/>
      <point x="163" y="720" type="curve" smooth="yes"/>
      <point x="163" y="753"/>
      <point x="182" y="781"/>
      <point x="212" y="794" type="curve"/>
      <point x="212" y="916" type="line"/>
      <point x="111" y="903"/>
      <point x="34" y="820"/>
      <point x="34" y="720" type="curve" smooth="yes"/>
      <point x="34" y="620"/>
      <point x="111" y="537"/>
    </contour>
    <contour>
      <point x="268" y="524" type="line"/>
      <point x="305" y="526"/>
      <point x="339" y="536"/>
      <point x="369" y="554" type="curve"/>
      <point x="340" y="669" type="line"/>
      <point x="322" y="652"/>
      <point x="300" y="641"/>
      <point x="268" y="641" type="curve"/>
    </contour>
    <contour>
      <point x="748" y="-16" type="line"/>
      <point x="850" y="-2"/>
      <point x="926" y="81"/>
      <point x="926" y="180" type="curve" smooth="yes"/>
      <point x="926" y="279"/>
      <point x="850" y="362"/>
      <point x="748" y="376" type="curve"/>
      <point x="748" y="256" type="line"/>
      <point x="781" y="244"/>
      <point x="803" y="215"/>
      <point x="803" y="180" type="curve" smooth="yes"/>
      <point x="803" y="145"/>
      <point x="781" y="116"/>
      <point x="748" y="104" type="curve"/>
    </contour>
    <contour>
      <point x="340" y="771" type="curve"/>
      <point x="369" y="886" type="line"/>
      <point x="339" y="904"/>
      <point x="305" y="914"/>
      <point x="268" y="916" type="curve"/>
      <point x="268" y="799" type="line"/>
      <point x="300" y="799"/>
      <point x="323" y="788"/>
    </contour>
  </outline>
</glyph>
<glyph name="circumflexcomb_hookabovecomb" format="2">
  <anchor x="360" y="600" name="_top"/>
  <outline>
    <contour>
      <point x="141" y="678" type="line"/>
      <point x="299" y="678" type="line"/>
      <point x="321" y="702"/>
      <point x="338" y="725"/>
      <point x="358" y="754" type="curve"/>
      <point x="378" y="725"/>
      <point x="395" y="702"/>
      <point x="417" y="678" type="curve"/>
      <point x="579" y="678" type="line"/>
      <point x="360" y="921" type="line"/>
    </contour>
    <contour>
      <point x="524" y="807" type="curve"/>
      <point x="656" y="807" type="line"/>
      <point x="681" y="835"/>
      <point x="702" y="870"/>
      <point x="702" y="915" type="curve" smooth="yes"/>
      <point x="702" y="988"/>
      <point x="635" y="1030"/>
      <point x="551" y="1030" type="curve" smooth="yes"/>
      <point x="501" y="1030"/>
      <point x="453" y="1014"/>
      <point x="431" y="995" type="curve"/>
      <point x="459" y="897" type="line"/>
      <point x="473" y="913"/>
      <point x="497" y="928"/>
      <point x="519" y="928" type="curve" smooth="yes"/>
      <point x="549" y="928"/>
      <point x="567" y="911"/>
      <point x="567" y="887" type="curve" smooth="yes"/>
      <point x="567" y="866"/>
      <point x="552" y="840"/>
    </contour>
  </outline>
</glyph>
<glyph name="dek.numr" format="2">
  <advance width="480"/>
  <outline>
    <contour>
      <point x="224" y="404" type="curve"/>
      <point x="224" y="530" type="line"/>
      <point x="207" y="539"/>
      <point x="198" y="556"/>
      <point x="198" y="578" type="curve" smooth="yes"/>
      <point x="198" y="599"/>
      <point x="207" y="617"/>
      <point x="234" y="651" type="curve" smooth="yes"/>
      <point x="435" y="900" type="line"/>
      <point x="290" y="900" type="line"/>
      <point x="129" y="708" type="line"/>
      <point x="85" y="656"/>
      <point x="66" y="617"/>
      <point x="66" y="573" type="curve" smooth="yes"/>
      <point x="66" y="488"/>
      <point x="131" y="417"/>
    </contour>
    <contour>
      <point x="280" y="404" type="line"/>
      <point x="371" y="417"/>
      <point x="435" y="486"/>
      <point x="435" y="573" type="curve" smooth="yes"/>
      <point x="435" y="598"/>
      <point x="431" y="611"/>
      <point x="425" y="630" type="curve"/>
      <point x="287" y="630" type="line"/>
      <point x="300" y="613"/>
      <point x="307" y="598"/>
      <point x="307" y="579" type="curve" smooth="yes"/>
      <point x="307" y="558"/>
      <point x="298" y="540"/>
      <point x="280" y="530" type="curve"/>
    </contour>
    <contour>
      <point x="45" y="786" type="line"/>
      <point x="134" y="786" type="line"/>
      <point x="230" y="900" type="line"/>
      <point x="45" y="900" type="line"/>
    </contour>
  </outline>
</glyph>
<glyph name="f_f" format="2">
  <advance width="840"/>
  <anchor x="220" y="0" name="bottom"/>
  <anchor x="364" y="960" name="top"/>
  <outline>
    <contour>
      <point x="30" y="462" type="line"/>
      <point x="810" y="462" type="line"/>
      <point x="810" y="600" type="line"/>
      <point x="694" y="600" type="line"/>
      <point x="694" y="757" type="line" smooth="yes"/>
      <point x="694" y="818"/>
      <point x="728" y="837"/>
      <point x="760" y="837" type="curve" smooth="yes"/>
      <point x="787" y="837"/>
      <point x="810" y="825"/>
      <point x="830" y="800" type="curve"/>
      <point x="864" y="941" type="line"/>
      <point x="832" y="962"/>
      <point x="788" y="972"/>
      <point x="743" y="972" type="curve" smooth="yes"/>
      <point x="620" y="972"/>
      <point x="526" y="896"/>
      <point x="526" y="753" type="curve" smooth="yes"/>
      <point x="526" y="600" type="line"/>
      <point x="304" y="600" type="line"/>
      <point x="304" y="757" type="line" smooth="yes"/>
      <point x="304" y="818"/>
      <point x="338" y="837"/>
      <point x="370" y="837" type="curve" smooth="yes"/>
      <point x="397" y="837"/>
      <point x="420" y="825"/>
      <point x="440" y="800" type="curve"/>
      <point x="474" y="941" type="line"/>
      <point x="442" y="962"/>
      <point x="398" y="972"/>
      <point x="353" y="972" type="curve" smooth="yes"/>
      <point x="230" y="972"/>
      <point x="136" y="896"/>
      <point x="136" y="753" type="curve" smooth="yes"/>
      <point x="136" y="600" type="line"/>
      <point x="30" y="600" type="line"/>
    </contour>
    <contour>
      <point x="133" y="0" type="line"/>
      <point x="307" y="0" type="line"/>
      <point x="307" y="408" type="line"/>
      <point x="133" y="408" type="line"/>
    </contour>
    <contour>
      <point x="523" y="0" type="line"/>
      <point x="697" y="0" type="line"/>
      <point x="697" y="408" type="line"/>
      <point x="523" y="408" type="line"/>
    </contour>
  </outline>
</glyph>
<glyph name="four.numr" format="2">
  <advance width="480"/>
  <outline>
    <contour>
      <point x="0" y="522" type="line"/>
      <point x="134" y="522" type="line"/>
      <point x="337" y="900" type="line"/>
      <point x="199" y="900" type="line"/>
    </contour>
    <contour>
      <point x="272" y="420" type="line"/>
      <point x="392" y="420" type="line"/>
      <point x="392" y="522" type="line"/>
      <point x="450" y="522" type="line"/>
      <point x="450" y="629" type="line"/>
      <point x="392" y="629" type="line"/>
      <point x="392" y="768" type="line"/>
      <point x="278" y="705" type="line"/>
      <point x="278" y="623" type="line"/>
      <point x="248" y="623" type="line"/>
      <point x="194" y="522" type="line"/>
      <point x="272" y="522" type="line"/>
    </contour>
  </outline>
</glyph>
<glyph name="ogonekcomb.i" format="2">
  <anchor x="403" y="0" name="_ogonek"/>
  <outline>
    <contour>
      <point x="458" y="-312" type="curve"/>
      <point x="480" y="-219" type="line"/>
      <point x="429" y="-219"/>
      <point x="393" y="-195"/>
      <point x="393" y="-134" type="curve" smooth="yes"/>
      <point x="393" y="-104"/>
      <point x="401" y="-79"/>
      <point x="416" y="-54" type="curve"/>
      <point x="317" y="-54" type="line"/>
      <point x="302" y="-86"/>
      <point x="293" y="-119"/>
      <point x="293" y="-153" type="curve" smooth="yes"/>
      <point x="293" y="-254"/>
      <point x="371" y="-312"/>
    </contour>
  </outline>
</glyph>
<glyph name="one.lf" format="2">
  <advance width="480"/>
  <outline>
    <contour>
      <point x="198" y="0" type="line"/>
      <point x="372" y="0" type="line"/>
      <point x="372" y="704" type="line"/>
      <point x="198" y="616" type="line"/>
    </contour>
    <contour>
      <point x="60" y="606" type="line"/>
      <point x="372" y="763" type="line"/>
      <point x="372" y="932" type="line"/>
      <point x="60" y="776" type="line"/>
    </contour>
  </outline>
</glyph>
<glyph name="parenright.titl" format="2">
  <advance width="480"/>
  <outline>
    <contour>
      <point x="108" y="-180" type="curve"/>
      <point x="198" y="-180" type="line"/>
      <point x="299" y="-13"/>
      <point x="358" y="182"/>
      <point x="358" y="390" type="curve" smooth="yes"/>
      <point x="358" y="598"/>
      <point x="299" y="793"/>
      <point x="198" y="960" type="curve"/>
      <point x="108" y="960" type="line"/>
      <point x="218" y="799"/>
      <point x="279" y="604"/>
      <point x="279" y="390" type="curve" smooth="yes"/>
      <point x="279" y="176"/>
      <point x="218" y="-19"/>
    </contour>
  </outline>
</glyph>
<glyph name="three.numr" format="2">
  <advance width="480"/>
  <outline>
    <contour>
      <point x="236" y="404" type="line"/>
      <point x="339" y="415"/>
      <point x="414" y="487"/>
      <point x="414" y="583" type="curve" smooth="yes"/>
      <point x="414" y="659"/>
      <point x="366" y="723"/>
      <point x="285" y="749" type="curve"/>
      <point x="284" y="683" type="line"/>
      <point x="405" y="900" type="line"/>
      <point x="272" y="900" type="line"/>
      <point x="131" y="637" type="line"/>
      <point x="151" y="647"/>
      <point x="175" y="656"/>
      <point x="202" y="656" type="curve" smooth="yes"/>
      <point x="261" y="656"/>
      <point x="282" y="621"/>
      <point x="282" y="589" type="curve" smooth="yes"/>
      <point x="282" y="561"/>
      <point x="265" y="538"/>
      <point x="236" y="528" type="curve"/>
    </contour>
    <contour>
      <point x="180" y="404" type="curve"/>
      <point x="180" y="525" type="line"/>
      <point x="140" y="534"/>
      <point x="116" y="563"/>
      <point x="107" y="592" type="curve"/>
      <point x="42" y="474" type="line"/>
      <point x="69" y="440"/>
      <point x="118" y="411"/>
    </contour>
    <contour>
      <point x="66" y="786" type="line"/>
      <point x="151" y="786" type="line"/>
      <point x="213" y="900" type="line"/>
      <point x="66" y="900" type="line"/>
    </contour>
  </outline>
</glyph>
<glyph name="two.lf" format="2">
  <advance width="690"/>
  <outline>
    <contour>
      <point x="56" y="0" type="line"/>
      <point x="245" y="0" type="line"/>
      <point x="562" y="448" type="line"/>
      <point x="612" y="519"/>
      <point x="635" y="572"/>
      <point x="635" y="636" type="curve" smooth="yes"/>
      <point x="635" y="783"/>
      <point x="516" y="904"/>
      <point x="369" y="919" type="curve"/>
      <point x="369" y="754" type="line"/>
      <point x="423" y="741"/>
      <point x="461" y="694"/>
      <point x="461" y="636" type="curve" smooth="yes"/>
      <point x="461" y="610"/>
      <point x="453" y="583"/>
      <point x="422" y="537" type="curve" smooth="yes"/>
    </contour>
    <contour>
      <point x="311" y="0" type="line"/>
      <point x="646" y="0" type="line"/>
      <point x="646" y="162" type="line"/>
      <point x="425" y="162" type="line"/>
    </contour>
    <contour>
      <point x="75" y="518" type="curve"/>
      <point x="271" y="518" type="line"/>
      <point x="232" y="551"/>
      <point x="212" y="592"/>
      <point x="212" y="636" type="curve" smooth="yes"/>
      <point x="212" y="694"/>
      <point x="250" y="742"/>
      <point x="305" y="755" type="curve"/>
      <point x="305" y="919" type="line"/>
      <point x="155" y="904"/>
      <point x="44" y="779"/>
      <point x="44" y="637" type="curve" smooth="yes"/>
      <point x="44" y="595"/>
      <point x="54" y="556"/>
    </contour>
  </outline>
</glyph>
<glyph name="two.numr" format="2">
  <advance width="480"/>
  <outline>
    <contour>
      <point x="45" y="420" type="line"/>
      <point x="190" y="420" type="line"/>
      <point x="351" y="612" type="line"/>
      <point x="395" y="664"/>
      <point x="414" y="703"/>
      <point x="414" y="747" type="curve" smooth="yes"/>
      <point x="414" y="832"/>
      <point x="349" y="903"/>
      <point x="257" y="916" type="curve"/>
      <point x="257" y="790" type="line"/>
      <point x="273" y="780"/>
      <point x="282" y="764"/>
      <point x="282" y="742" type="curve" smooth="yes"/>
      <point x="282" y="721"/>
      <point x="273" y="703"/>
      <point x="246" y="669" type="curve" smooth="yes"/>
    </contour>
    <contour>
      <point x="249" y="420" type="line"/>
      <point x="435" y="420" type="line"/>
      <point x="435" y="534" type="line"/>
      <point x="345" y="534" type="line"/>
    </contour>
    <contour>
      <point x="55" y="690" type="curve"/>
      <point x="193" y="690" type="line"/>
      <point x="180" y="707"/>
      <point x="173" y="722"/>
      <point x="173" y="741" type="curve" smooth="yes"/>
      <point x="173" y="763"/>
      <point x="182" y="781"/>
      <point x="201" y="791" type="curve"/>
      <point x="201" y="916" type="line"/>
      <point x="109" y="903"/>
      <point x="45" y="835"/>
      <point x="45" y="747" type="curve" smooth="yes"/>
      <point x="45" y="722"/>
      <point x="49" y="709"/>
    </contour>
  </outline>
</glyph>
